<svg xmlns="http://www.w3.org/2000/svg" version="1.1" xmlns:xlink="http://www.w3.org/1999/xlink" xmlns:svgjs="http://svgjs.dev/svgjs" width="1500" height="541" viewBox="0 0 1500 541"><g transform="matrix(1,0,0,1,-0.9090909090909918,-0.36194841224352103)"><svg viewBox="0 0 396 143" data-background-color="#282634" preserveAspectRatio="xMidYMid meet" height="541" width="1500" xmlns="http://www.w3.org/2000/svg" xmlns:xlink="http://www.w3.org/1999/xlink"><g id="tight-bounds" transform="matrix(1,0,0,1,0.2400000000000091,0.09567213114755191)"><svg viewBox="0 0 395.52 142.80865573770492" height="142.80865573770492" width="395.52"><g><svg viewBox="0 0 395.52 142.80865573770492" height="142.80865573770492" width="395.52"><g><svg viewBox="0 0 395.52 142.80865573770492" height="142.80865573770492" width="395.52"><g id="textblocktransform"><svg viewBox="0 0 395.52 142.80865573770492" height="142.80865573770492" width="395.52" id="textblock"><g><svg viewBox="0 0 395.52 142.80865573770492" height="142.80865573770492" width="395.52"><g transform="matrix(1,0,0,1,0,0)"><svg width="395.52" viewBox="-0.65 -33.3 121.98 44.05" height="142.80865573770492" data-palette-color="#fffefe"><path d="M3.75-32.5L3.75-33 10.95-33 10.95-32.5 10.7-32.5Q10.3-32.5 10-32.23 9.7-31.95 9.47-31.53 9.25-31.1 9.13-30.65 9-30.2 9-29.85L9-29.85 9-2Q9-0.4 8.6 0.95 8.2 2.3 7.53 3.48 6.85 4.65 6.03 5.63 5.2 6.6 4.3 7.4L4.3 7.4Q2.25 9.25-0.4 10.5L-0.4 10.5-0.65 10.1Q1.1 8.85 2.45 7.15L2.45 7.15Q3.6 5.7 4.6 3.6 5.6 1.5 5.6-1.25L5.6-1.25 5.6-29.85Q5.6-30.2 5.5-30.65 5.4-31.1 5.18-31.53 4.95-31.95 4.65-32.23 4.35-32.5 4-32.5L4-32.5 3.75-32.5ZM32.7-10.1L15.35-10.1Q15.55-8.35 16.2-6.78 16.85-5.2 17.92-4 19-2.8 20.55-2.08 22.1-1.35 24.15-1.35L24.15-1.35Q25.25-1.35 26.47-1.68 27.7-2 28.75-2.6 29.8-3.2 30.62-4.08 31.45-4.95 31.75-6.05L31.75-6.05 32.2-6.05 32.2-2.3Q31.9-2.3 31.52-2.1 31.15-1.9 30.65-1.6L30.65-1.6Q29.65-1 27.95-0.33 26.25 0.35 23.45 0.35L23.45 0.35Q21.2 0.35 19.17-0.3 17.15-0.95 15.6-2.3 14.05-3.65 13.12-5.75 12.2-7.85 12.2-10.75L12.2-10.75Q12.2-12.6 12.82-14.5 13.45-16.4 14.72-17.93 16-19.45 18-20.4 20-21.35 22.8-21.35L22.8-21.35Q25.3-21.35 27.17-20.5 29.05-19.65 30.27-18.15 31.5-16.65 32.1-14.6 32.7-12.55 32.7-10.1L32.7-10.1ZM22.6-19.7L22.6-19.7Q20.85-19.7 19.57-19 18.3-18.3 17.4-17.2 16.5-16.1 16-14.7 15.5-13.3 15.35-11.9L15.35-11.9 29.6-11.9Q29.55-13.35 29.07-14.75 28.6-16.15 27.75-17.25 26.9-18.35 25.6-19.03 24.3-19.7 22.6-19.7ZM47.34-19.3L41.74-19.3 41.74-7.25Q41.74-5.95 41.8-4.9 41.84-3.85 42.05-3.15 42.24-2.45 42.64-2.08 43.05-1.7 43.74-1.7L43.74-1.7Q44.8-1.7 45.72-2.7 46.64-3.7 46.89-5.1L46.89-5.1 47.34-5.1 47.34-1.45Q46.89-1.45 46.59-1.15L46.59-1.15Q46.2-0.8 45.47-0.4 44.74 0 43.3 0L43.3 0Q41.49 0 40.49-0.7 39.49-1.4 39.05-2.55 38.59-3.7 38.52-5.1 38.45-6.5 38.45-7.95L38.45-7.95 38.45-19.3 35.64-19.3 35.64-21 38.45-21 38.45-25.45Q38.45-26.3 38.22-27.03 37.99-27.75 36.74-27.8L36.74-27.8 36.74-28.3 41.74-29.9 41.74-21 47.34-21 47.34-19.3ZM57.84 0L51.29 0 51.29-0.5Q51.69-0.5 51.99-0.8 52.29-1.1 52.52-1.5 52.74-1.9 52.84-2.38 52.94-2.85 52.94-3.25L52.94-3.25 52.94-28.85Q52.94-29.7 52.69-30.45 52.44-31.2 51.19-31.25L51.19-31.25 51.19-31.75 56.24-33.3 56.24-3.25Q56.24-2.85 56.34-2.38 56.44-1.9 56.67-1.5 56.89-1.1 57.17-0.8 57.44-0.5 57.84-0.5L57.84-0.5 57.84 0ZM69.84 0L63.34 0 63.34-0.5Q63.74-0.5 64.04-0.8 64.34-1.1 64.54-1.5 64.74-1.9 64.84-2.38 64.94-2.85 64.94-3.25L64.94-3.25 64.94-17.1Q64.94-17.95 64.69-18.73 64.44-19.5 63.24-19.55L63.24-19.55 63.24-20 68.24-21.6 68.24-3.25Q68.24-2.85 68.34-2.38 68.44-1.9 68.64-1.5 68.84-1.1 69.14-0.8 69.44-0.5 69.84-0.5L69.84-0.5 69.84 0ZM63.59-26.4L63.59-26.4Q63.59-27.4 64.27-28.1 64.94-28.8 65.94-28.8L65.94-28.8Q66.94-28.8 67.64-28.1 68.34-27.4 68.34-26.4L68.34-26.4Q68.34-25.4 67.64-24.75 66.94-24.1 65.94-24.1L65.94-24.1Q64.94-24.1 64.27-24.75 63.59-25.4 63.59-26.4ZM85.49-19.3L79.84-19.3 79.84-3.25Q79.84-2.85 79.94-2.38 80.04-1.9 80.26-1.5 80.49-1.1 80.76-0.8 81.04-0.5 81.44-0.5L81.44-0.5 81.44 0 74.94 0 74.94-0.5Q75.29-0.5 75.59-0.8 75.89-1.1 76.11-1.5 76.34-1.9 76.44-2.38 76.54-2.85 76.54-3.25L76.54-3.25 76.54-19.3 74.04-19.3 74.04-21 76.54-21 76.54-25.05Q76.54-26.6 76.64-28.05 76.74-29.5 77.24-30.65 77.74-31.8 78.76-32.5 79.79-33.2 81.59-33.2L81.59-33.2Q82.59-33.2 83.31-32.98 84.04-32.75 84.56-32.48 85.09-32.2 85.44-31.98 85.79-31.75 86.04-31.75L86.04-31.75 86.04-28.1 85.59-28.1Q85.34-29.55 84.29-30.53 83.24-31.5 82.19-31.5L82.19-31.5Q80.74-31.5 80.29-29.98 79.84-28.45 79.84-25.75L79.84-25.75 79.84-21 85.49-21 85.49-19.3ZM95.94 0L89.39 0 89.39-0.5Q89.78-0.5 90.09-0.8 90.39-1.1 90.61-1.5 90.84-1.9 90.94-2.38 91.03-2.85 91.03-3.25L91.03-3.25 91.03-28.85Q91.03-29.7 90.78-30.45 90.53-31.2 89.28-31.25L89.28-31.25 89.28-31.75 94.34-33.3 94.34-3.25Q94.34-2.85 94.44-2.38 94.53-1.9 94.76-1.5 94.98-1.1 95.26-0.8 95.53-0.5 95.94-0.5L95.94-0.5 95.94 0ZM119.03-18.3L108.73 7.15Q108.03 9.25 106.96 10 105.88 10.75 104.73 10.75L104.73 10.75Q103.98 10.75 103.41 10.55 102.83 10.35 102.41 10.08 101.98 9.8 101.73 9.55 101.48 9.3 101.43 9.15L101.43 9.15 103.08 5.1Q103.33 6 103.58 6.45L103.58 6.45Q103.83 6.95 104.28 7.35 104.73 7.75 105.38 7.75L105.38 7.75Q106.58 7.75 107.28 6L107.28 6 109.73-0.15 101.68-18.35Q101.43-18.95 100.86-19.73 100.28-20.5 99.28-20.5L99.28-20.5 99.28-21 105.88-21 105.88-20.5Q105.68-20.5 105.38-20.15 105.08-19.8 105.08-19.25L105.08-19.25Q105.08-18.8 105.28-18.45L105.28-18.45 111.43-4.3 117.33-18.75Q117.48-19.1 117.48-19.4L117.48-19.4Q117.48-19.9 117.16-20.2 116.83-20.5 116.48-20.5L116.48-20.5 116.48-21 121.33-21 121.33-20.5Q120.53-20.5 119.96-19.83 119.38-19.15 119.03-18.3L119.03-18.3Z" opacity="1" transform="matrix(1,0,0,1,0,0)" fill="#fffefe" class="wordmark-text-0" data-fill-palette-color="primary" id="text-0"></path></svg></g></svg></g></svg></g></svg></g><g></g></svg></g><defs></defs></svg><react width="395.52" height="142.80865573770492" fill="none" stroke="none" visibility="hidden"></react></g></svg></g></svg>