<svg xmlns="http://www.w3.org/2000/svg" version="1.1" xmlns:xlink="http://www.w3.org/1999/xlink" xmlns:svgjs="http://svgjs.dev/svgjs" width="1500" height="935" viewBox="0 0 1500 935"><g transform="matrix(1,0,0,1,-0.9090909090909918,0.3785425101214628)"><svg viewBox="0 0 396 247" data-background-color="#ffffff" preserveAspectRatio="xMidYMid meet" height="935" width="1500" xmlns="http://www.w3.org/2000/svg" xmlns:xlink="http://www.w3.org/1999/xlink"><g id="tight-bounds" transform="matrix(1,0,0,1,0.2400000000000091,-0.09999999999999432)"><svg viewBox="0 0 395.52 247.2" height="247.2" width="395.52"><g><svg></svg></g><g><svg viewBox="0 0 395.52 247.2" height="247.2" width="395.52"><g transform="matrix(1,0,0,1,75.54432,76.93692824228579)"><svg viewBox="0 0 244.43135999999998 93.32614351542841" height="93.32614351542841" width="244.43135999999998"><g><svg viewBox="0 0 244.43135999999998 93.32614351542841" height="93.32614351542841" width="244.43135999999998"><g><svg viewBox="0 0 244.43135999999998 93.32614351542841" height="93.32614351542841" width="244.43135999999998"><g id="textblocktransform"><svg viewBox="0 0 244.43135999999998 93.32614351542841" height="93.32614351542841" width="244.43135999999998" id="textblock"><g><svg viewBox="0 0 244.43135999999998 93.32614351542841" height="93.32614351542841" width="244.43135999999998"><g transform="matrix(1,0,0,1,0,0)"><svg width="244.43135999999998" viewBox="0.15 -35.7 126.1 48.150000000000006" height="93.32614351542841" data-palette-color="#152232"><path d="M10.7-27.45L10.7-6.25Q10.7-2.75 10.38-0.05 10.05 2.65 9.05 4.83 8.05 7 6.13 8.85 4.2 10.7 1 12.45L1 12.45Q0.65 12.25 0.45 11.9 0.25 11.55 0.15 11.15L0.15 11.15Q2.05 9.55 3.35 7.8 4.65 6.05 5.33 3.75 6 1.45 6-1.7L6-1.7 6-27.45Q6-29.15 5.7-30.05 5.4-30.95 4.65-31.35 3.9-31.75 2.55-31.8L2.55-31.8Q2.4-32.2 2.35-32.75 2.3-33.3 2.3-33.95L2.3-33.95Q3.05-33.9 4.03-33.88 5-33.85 6.13-33.83 7.25-33.8 8.35-33.8L8.35-33.8Q10-33.8 11.75-33.85 13.5-33.9 14.4-33.95L14.4-33.95Q14.4-33.3 14.35-32.75 14.3-32.2 14.15-31.8L14.15-31.8Q12.9-31.75 12.13-31.35 11.35-30.95 11.03-30.05 10.7-29.15 10.7-27.45L10.7-27.45ZM29.05 0.45L29.05 0.45Q25.5 0.45 23.15-1.15 20.8-2.75 19.62-5.48 18.45-8.2 18.45-11.45L18.45-11.45Q18.45-14.65 19.7-17.35 20.95-20.05 23.27-21.7 25.6-23.35 28.8-23.35L28.8-23.35Q32.05-23.35 34.02-21.95 36-20.55 36.97-18.2 37.95-15.85 38.15-13L38.15-13Q37.95-12 37.4-11.3L37.4-11.3Q36.55-11.3 34.85-11.3 33.15-11.3 31-11.28 28.85-11.25 26.6-11.18 24.35-11.1 22.35-11L22.35-11 22.35-13.55 32.95-13.55Q32.95-16.85 31.75-18.9 30.55-20.95 28.35-20.95L28.35-20.95Q27.15-20.95 26-20.23 24.85-19.5 24.1-17.68 23.35-15.85 23.35-12.5L23.35-12.5Q23.35-10.05 23.97-7.73 24.6-5.4 26.17-3.88 27.75-2.35 30.65-2.35L30.65-2.35Q32.3-2.35 33.9-3.1 35.5-3.85 36.75-5.25L36.75-5.25Q37.15-5.05 37.52-4.58 37.9-4.1 37.95-3.7L37.95-3.7Q36.25-1.45 34.02-0.5 31.8 0.45 29.05 0.45ZM50.55 0.45L50.55 0.45Q47.6 0.45 46.17-1.07 44.75-2.6 44.75-6L44.75-6 44.75-19.55Q44-19.8 43.2-19.98 42.4-20.15 41.15-20.2L41.15-20.2Q41.15-20.85 41.25-21.33 41.35-21.8 41.6-22.4L41.6-22.4 44.75-22.4 44.75-29Q45.75-29.25 46.72-29.8 47.7-30.35 48.45-31L48.45-31Q48.95-30.8 49.1-30.4 49.25-30 49.25-28.4L49.25-28.4 49.25-22.4 55.75-22.4Q55.75-21.9 55.65-21.33 55.55-20.75 55.3-20.2L55.3-20.2Q53.5-20.15 52-19.98 50.5-19.8 49.25-19.55L49.25-19.55 49.25-7.05Q49.25-5.4 49.6-4.33 49.95-3.25 50.6-2.75 51.25-2.25 52.15-2.25L52.15-2.25Q53.2-2.25 53.97-2.55 54.75-2.85 55.45-3.45L55.45-3.45Q56.1-2.7 56.2-1.8L56.2-1.8Q55.4-0.85 53.77-0.2 52.15 0.45 50.55 0.45ZM59.54 0.15L59.54 0.15Q59.54-0.35 59.59-0.93 59.64-1.5 59.79-2L59.79-2Q61.79-2 62.52-2.93 63.24-3.85 63.24-6.35L63.24-6.35 63.24-16.25Q63.24-17.45 63.02-18.23 62.79-19 61.99-19.4 61.19-19.8 59.49-19.8L59.49-19.8Q59.49-20.35 59.59-20.8 59.69-21.25 59.94-21.65L59.94-21.65Q60.69-21.65 62.07-21.9 63.44-22.15 64.74-22.55 66.04-22.95 66.64-23.35L66.64-23.35Q67.09-23.2 67.42-22.75 67.74-22.3 67.74-21.35L67.74-21.35 67.74-6.35Q67.74-3.85 68.42-2.93 69.09-2 70.69-2L70.69-2Q70.84-1.5 70.89-0.85 70.94-0.2 70.94 0.15L70.94 0.15Q70.09 0.1 69.14 0.08 68.19 0.05 67.22 0.03 66.24 0 65.29 0L65.29 0Q64.34 0 63.32 0.03 62.29 0.05 61.34 0.08 60.39 0.1 59.54 0.15ZM65.09-29L65.09-29Q63.84-29 62.99-29.85 62.14-30.7 62.14-31.9L62.14-31.9Q62.14-33.25 63.04-34.1 63.94-34.95 65.09-34.95L65.09-34.95Q66.44-34.95 67.27-34.1 68.09-33.25 68.09-31.9L68.09-31.9Q68.09-30.75 67.22-29.88 66.34-29 65.09-29ZM82.59-22.4L88.14-22.4Q88.14-21.9 88.04-21.28 87.94-20.65 87.64-20.15L87.64-20.15Q86.19-20.15 84.92-19.98 83.64-19.8 82.59-19.45L82.59-19.45 82.59-22.4ZM78.54-11.1L78.54-24.4Q78.54-28.15 80.07-30.68 81.59-33.2 83.99-34.45 86.39-35.7 88.99-35.7L88.99-35.7Q90.94-35.7 91.94-35.33 92.94-34.95 93.74-34.45L93.74-34.45Q93.64-32.9 93.59-31.43 93.54-29.95 93.54-28.6L93.54-28.6Q92.89-28.4 92.14-28.3 91.39-28.2 90.69-28.2L90.69-28.2Q90.69-30.25 89.79-31.6 88.89-32.95 86.79-32.95L86.79-32.95Q85.44-32.95 84.62-32.13 83.79-31.3 83.42-29.75 83.04-28.2 83.04-25.95L83.04-25.95 83.04-11.1 78.54-11.1ZM75.24-22.4L79.29-22.4 79.29-19.55Q78.04-19.9 76.74-20.03 75.44-20.15 74.54-20.15L74.54-20.15Q74.54-20.8 74.72-21.35 74.89-21.9 75.24-22.4L75.24-22.4ZM83.04-11.35L83.04-7.35Q83.04-5.2 83.49-4.08 83.94-2.95 84.94-2.53 85.94-2.1 87.49-2L87.49-2Q87.64-1.6 87.69-1.07 87.74-0.55 87.74 0.15L87.74 0.15Q86.99 0.1 85.97 0.08 84.94 0.05 83.79 0.03 82.64 0 81.44 0L81.44 0Q79.69 0 77.77 0.03 75.84 0.05 74.84 0.15L74.84 0.15Q74.84-0.55 74.89-1.07 74.94-1.6 75.09-2L75.09-2Q76.44-2.1 77.19-2.48 77.94-2.85 78.24-3.78 78.54-4.7 78.54-6.35L78.54-6.35 78.54-11.35 83.04-11.35ZM105.34-6.2L108.79-14.9Q110.09-18.1 109.41-19.28 108.74-20.45 106.54-20.85L106.54-20.85Q106.34-21.4 106.26-21.93 106.19-22.45 106.19-23L106.19-23Q107.34-22.95 108.54-22.93 109.74-22.9 111.14-22.9L111.14-22.9Q112.54-22.9 113.79-22.93 115.04-22.95 116.14-23L116.14-23Q116.14-22.5 116.11-21.95 116.09-21.4 115.84-20.85L115.84-20.85Q114.94-20.65 114.31-20.15 113.69-19.65 113.14-18.6 112.59-17.55 111.79-15.65L111.79-15.65 104.44 1.85Q103.04 5.25 101.91 7.35 100.79 9.45 99.81 10.55 98.84 11.65 97.86 12.05 96.89 12.45 95.74 12.45L95.74 12.45Q94.24 12.45 93.36 12.05 92.49 11.65 91.99 11.3L91.99 11.3Q91.79 10.55 91.84 9.43 91.89 8.3 92.04 7.65L92.04 7.65Q92.89 7.8 93.69 7.88 94.49 7.95 95.24 7.95L95.24 7.95Q96.69 7.95 98.01 7.25 99.34 6.55 100.29 5L100.29 5Q100.99 3.95 102.39 0.88 103.79-2.2 105.34-6.2L105.34-6.2ZM105.19-4.25L102.94 1.05Q101.74-1.6 100.41-4.53 99.09-7.45 97.89-10.15 96.69-12.85 95.79-14.7L95.79-14.7Q94.64-17.2 93.86-18.45 93.09-19.7 92.41-20.2 91.74-20.7 90.89-20.85L90.89-20.85Q90.74-21.3 90.66-21.85 90.59-22.4 90.59-23L90.59-23Q92.04-22.95 93.49-22.93 94.94-22.9 96.24-22.9L96.24-22.9Q97.54-22.9 99.44-22.93 101.34-22.95 102.89-23L102.89-23Q102.89-22.35 102.81-21.83 102.74-21.3 102.54-20.85L102.54-20.85Q99.84-20.4 99.44-19.28 99.04-18.15 100.39-15.35L100.39-15.35Q101.09-13.9 101.99-11.88 102.89-9.85 103.74-7.83 104.59-5.8 105.19-4.25L105.19-4.25ZM122.71 0.48L122.71 0.48Q121.09 0.48 120.19-0.42 119.29-1.32 119.29-2.7L119.29-2.7Q119.29-4.08 120.31-5.1 121.33-6.12 122.95-6.12L122.95-6.12Q124.51-6.12 125.38-5.07 126.25-4.02 126.25-3L126.25-3Q126.25-1.2 125.17-0.36 124.09 0.48 122.71 0.48Z" opacity="1" transform="matrix(1,0,0,1,0,0)" fill="#152232" class="wordmark-text-0" data-fill-palette-color="primary" id="text-0"></path></svg></g></svg></g></svg></g></svg></g></svg></g></svg></g><g><path d="M0 123.6c0-68.262 55.338-123.6 123.6-123.6 47.431 0 88.621 26.716 109.345 65.921l-4.785 0c-20.341-36.796-59.541-61.713-104.56-61.713-65.938 0-119.392 53.454-119.392 119.392 0 65.938 53.454 119.392 119.392 119.392 45.019 0 84.219-24.917 104.56-61.713h4.785c-20.723 39.205-61.914 65.921-109.345 65.921-68.262 0-123.6-55.338-123.6-123.6z" fill="#5ebc67" stroke="transparent" data-fill-palette-color="tertiary"></path></g></svg></g><defs></defs></svg><rect width="395.52" height="247.2" fill="none" stroke="none" visibility="hidden"></rect></g></svg></g></svg>